<?xml version="1.0" encoding="iso-8859-1"?>
<!-- Generator: Adobe Illustrator 16.0.0, SVG Export Plug-In . SVG Version: 6.00 Build 0)  -->
<!DOCTYPE svg PUBLIC "-//W3C//DTD SVG 1.1//EN" "http://www.w3.org/Graphics/SVG/1.1/DTD/svg11.dtd">
<svg xmlns="http://www.w3.org/2000/svg" xmlns:xlink="http://www.w3.org/1999/xlink" version="1.1" id="Capa_1" x="0px" y="0px" width="512px" height="512px" viewBox="0 0 381.105 381.105" style="enable-background:new 0 0 381.105 381.105;" xml:space="preserve">
<g>
	<g>
		<polygon points="173.641,162.236 170.352,171.007 167.32,162.041 162.488,148.312 153.333,148.312 166.034,179.582     160.099,193.377 168.743,193.377 188.145,148.312 179.441,148.312   " fill="#D80027"/>
		<path d="M207.247,147.668c-10.12,0-16.439,7.475-16.439,16.57c0,9.155,6.182,16.567,16.502,16.567    c10.31,0,16.568-7.412,16.568-16.567C223.888,155.144,217.368,147.668,207.247,147.668z M207.32,173.582    c-5.742,0-8.641-4.509-8.641-9.349c0-4.772,2.961-9.413,8.641-9.413c5.276,0,8.63,4.641,8.63,9.413    C215.95,169.073,213.049,173.582,207.32,173.582z" fill="#D80027"/>
		<path d="M253.935,180.163h7.035v-31.851h-7.801v16.244c0,4.84-3.285,8.898-8.121,8.898c-5.035,0-7.679-3.677-7.679-8.509v-16.633    h-7.864v16.695c0,9.867,5.543,15.601,13.149,15.601c4.445,0,7.48-1.548,10.767-4.768L253.935,180.163z" fill="#D80027"/>
		<path d="M295.615,181.06c3.539-0.065,8.505-1.871,10.31-5.606l0.39,4.638h7.412v-31.785h-7.539l-0.263,4.381    c-1.805-3.16-5.868-5.155-10.12-5.155c-9.281-0.063-16.567,5.672-16.567,16.632C279.237,175.325,286.198,181.123,295.615,181.06z     M296.519,154.563c12.378,0,12.378,19.276,0,19.276c-5.229,0-9.418-3.606-9.418-9.67    C287.101,158.107,291.302,154.563,296.519,154.563z" fill="#D80027"/>
		<path d="M328.267,163.331c0-5.864,3.802-8.063,7.926-8.063c2.584,0,4.064,0.71,5.677,2.066l3.542-6.833    c-1.737-1.744-4.897-3.032-8.188-3.032c-3.223,0-6.51,0.58-8.956,4.515l-0.577-3.677h-7.286v31.785h7.874v-16.761H328.267z" fill="#D80027"/>
		<path d="M364.441,180.931c4.833,0,10.32-1.677,13.668-5.155l-5.033-4.963c-1.806,1.871-5.606,2.967-8.505,2.967    c-5.547,0-8.965-2.839-9.479-6.769h24.819c1.229-13.089-5.417-19.662-16.054-19.662c-10.31,0-16.893,6.961-16.893,16.63    C346.97,174.162,353.479,180.931,364.441,180.931z M364.12,154.306c4.505,0,7.728,2.063,8.252,6.186h-17.149    C356.383,156.37,359.858,154.306,364.12,154.306z" fill="#D80027"/>
		<path d="M264.156,200.558c-3.612,0-7.092,1.093-9.933,4.768v-17.664h-7.864v45.129h7.864v-16.246c0-4.772,3.229-8.704,7.863-8.704    c4.184,0,7.225,2.451,7.225,8.252v16.698h7.868v-16.766C277.18,206.679,273.181,200.558,264.156,200.558z" fill="#D80027"/>
		<path d="M299.306,200.038c-10.31,0-16.898,6.962-16.898,16.636c0,10.185,6.521,16.95,17.48,16.95    c4.83,0,10.316-1.675,13.665-5.154l-5.033-4.961c-1.808,1.87-5.607,2.966-8.505,2.966c-5.544,0-8.967-2.841-9.481-6.767h24.821    C316.593,206.616,309.936,200.038,299.306,200.038z M290.66,213.194c1.171-4.132,4.651-6.188,8.902-6.188    c4.516,0,7.733,2.067,8.253,6.188H290.66z" fill="#D80027"/>
		<path d="M329.306,204.685l-0.577-3.675h-7.286v31.78h7.868v-16.755c0-5.869,3.807-8.063,7.934-8.063    c2.576,0,4.062,0.703,5.674,2.062l3.543-6.835c-1.737-1.738-4.897-3.028-8.184-3.028    C335.039,200.171,331.757,200.747,329.306,204.685z" fill="#D80027"/>
		<path d="M364.914,200.038c-10.322,0-16.898,6.962-16.898,16.636c0,10.185,6.509,16.95,17.47,16.95    c4.835,0,10.32-1.675,13.67-5.154l-5.029-4.961c-1.806,1.87-5.612,2.966-8.516,2.966c-5.542,0-8.954-2.841-9.474-6.767h24.824    C382.184,206.616,375.543,200.038,364.914,200.038z M356.277,213.194c1.155-4.132,4.635-6.188,8.889-6.188    c4.519,0,7.731,2.067,8.251,6.188H356.277z" fill="#D80027"/>
		<path d="M0,260.433h139.761V120.673H0V260.433z M17.958,140.248c5.08-5.068,13.933-5.073,19.003,0.005l32.925,32.919    l32.919-32.925c5.073-5.073,13.927-5.073,19,0c2.539,2.539,3.935,5.913,3.935,9.504c0,3.585-1.396,6.96-3.935,9.504L88.886,192.18    l26.168,26.169c2.538,2.535,3.934,5.911,3.934,9.508c0,3.589-1.396,6.96-3.934,9.5c-5.073,5.071-13.926,5.071-19.003,0    l-26.166-26.167l-29.544,29.543c-2.538,2.536-5.913,3.932-9.504,3.932c-3.59,0-6.96-1.396-9.503-3.932    c-2.539-2.535-3.935-5.916-3.935-9.506c0-3.581,1.396-6.962,3.935-9.502l29.544-29.545l-32.92-32.923    c-2.538-2.539-3.934-5.914-3.934-9.504C14.024,146.161,15.42,142.787,17.958,140.248z" fill="#D80027"/>
	</g>
</g>
<g>
</g>
<g>
</g>
<g>
</g>
<g>
</g>
<g>
</g>
<g>
</g>
<g>
</g>
<g>
</g>
<g>
</g>
<g>
</g>
<g>
</g>
<g>
</g>
<g>
</g>
<g>
</g>
<g>
</g>
</svg>
