<svg xmlns="http://www.w3.org/2000/svg" xmlns:xlink="http://www.w3.org/1999/xlink" version="1.1" style="" xml:space="preserve" width="60" height="60"><rect id="backgroundrect" width="100%" height="100%" x="0" y="0" fill="none" stroke="none"/>
















<g class="currentLayer" style=""><title>Layer 1</title><path d="M57.49,27H54v-7.268C54,18.226,52.774,17,51.268,17H50v-2.414V0H10v2H9H8H7v2H6H4v2v4H2.732C1.226,10,0,11.226,0,12.732  v45.23l0.058,0.002c0.078,0.367,0.234,0.719,0.471,1.029C1.018,59.634,1.76,60,2.565,60h44.759c1.156,0,2.174-0.779,2.45-1.813  L60,30.149v-0.177C60,28.25,58.944,27,57.49,27z M18,5h10c0.552,0,1,0.447,1,1s-0.448,1-1,1H18c-0.552,0-1-0.447-1-1S17.448,5,18,5z   M18,12h24c0.552,0,1,0.447,1,1s-0.448,1-1,1H18c-0.552,0-1-0.447-1-1S17.448,12,18,12z M18,19h24c0.552,0,1,0.447,1,1s-0.448,1-1,1  H18c-0.552,0-1-0.447-1-1S17.448,19,18,19z M2,51.526V12.732C2,12.328,2.329,12,2.732,12H4v34.041L2,51.526z M6,6h1v31.813l-1,2.743  V6z M52,27h-5H12.731c-1.156,0-2.174,0.779-2.45,1.813L9,32.328V4h1v6v2v13v1h40v-1v-6h1.268C51.671,19,52,19.328,52,19.732V27z" fill="#FFFFFF" id="svg_1" class="" opacity="0.25"/><g id="svg_2">
</g><g id="svg_3">
</g><g id="svg_4">
</g><g id="svg_5">
</g><g id="svg_6">
</g><g id="svg_7">
</g><g id="svg_8">
</g><g id="svg_9">
</g><g id="svg_10">
</g><g id="svg_11">
</g><g id="svg_12">
</g><g id="svg_13">
</g><g id="svg_14">
</g><g id="svg_15">
</g><g id="svg_16">
</g></g></svg>