<svg version="1.1" xmlns="http://www.w3.org/2000/svg" xmlns:xlink="http://www.w3.org/1999/xlink" style="enable-background:new 0 0 414.981 414.981;" xml:space="preserve" width="414.981" height="414.981"><rect id="backgroundrect" width="100%" height="100%" x="0" y="0" fill="none" stroke="none"/>
















<g class="currentLayer" style=""><title>Layer 1</title><g id="svg_1" class="selected" opacity="0.68">
	<g id="Guides_For_Artboard_47_" opacity="0.68">
	</g>
	<g id="Artwork_46_" opacity="0.68">
	</g>
	<g id="Layer_2_46_" opacity="0.68">
		<g id="svg_2" opacity="0.68">
			<path style="fill:#F7F1E6;" d="M349.872,43.62h-91.011v48.117c0,4.967-4.026,8.994-8.993,8.994h-86.756     c-4.967,0-8.993-4.026-8.993-8.994V43.62H65.109c-17.095,0-30.952,13.857-30.952,30.953v308.871     c0,17.095,13.857,30.953,30.952,30.953h116.098v-72.305c0-3.264,2.646-5.91,5.91-5.91h42.552c3.265,0,5.91,2.646,5.91,5.91     v72.305h114.293c17.095,0,30.953-13.857,30.953-30.953V74.573C380.826,57.477,366.966,43.62,349.872,43.62z M152.07,311.425     c0,3.264-2.646,5.91-5.91,5.91h-42.552c-3.265,0-5.91-2.646-5.91-5.91v-42.552c0-3.264,2.646-5.91,5.91-5.91h42.552     c3.265,0,5.91,2.646,5.91,5.91V311.425z M152.07,238.865c0,3.264-2.646,5.91-5.91,5.91h-42.552c-3.265,0-5.91-2.646-5.91-5.91     v-42.552c0-3.264,2.646-5.91,5.91-5.91h42.552c3.265,0,5.91,2.646,5.91,5.91V238.865z M152.07,165.646     c0,3.264-2.646,5.91-5.91,5.91h-42.552c-3.265,0-5.91-2.646-5.91-5.91v-42.552c0-3.264,2.646-5.91,5.91-5.91h42.552     c3.265,0,5.91,2.646,5.91,5.91V165.646z M235.579,311.425c0,3.264-2.646,5.91-5.91,5.91h-42.552c-3.265,0-5.91-2.646-5.91-5.91     v-42.552c0-3.264,2.646-5.91,5.91-5.91h42.552c3.265,0,5.91,2.646,5.91,5.91V311.425z M235.579,238.865     c0,3.264-2.646,5.91-5.91,5.91h-42.552c-3.265,0-5.91-2.646-5.91-5.91v-42.552c0-3.264,2.646-5.91,5.91-5.91h42.552     c3.265,0,5.91,2.646,5.91,5.91V238.865z M235.579,165.646c0,3.264-2.646,5.91-5.91,5.91h-42.552c-3.265,0-5.91-2.646-5.91-5.91     v-42.552c0-3.264,2.646-5.91,5.91-5.91h42.552c3.265,0,5.91,2.646,5.91,5.91V165.646z M319.089,311.425     c0,3.264-2.646,5.91-5.91,5.91h-42.552c-3.265,0-5.91-2.646-5.91-5.91v-42.552c0-3.264,2.646-5.91,5.91-5.91h42.552     c3.265,0,5.91,2.646,5.91,5.91V311.425z M319.089,238.865c0,3.264-2.646,5.91-5.91,5.91h-42.552c-3.265,0-5.91-2.646-5.91-5.91     v-42.552c0-3.264,2.646-5.91,5.91-5.91h42.552c3.265,0,5.91,2.646,5.91,5.91V238.865z M319.089,165.646     c0,3.264-2.646,5.91-5.91,5.91h-42.552c-3.265,0-5.91-2.646-5.91-5.91v-42.552c0-3.264,2.646-5.91,5.91-5.91h42.552     c3.265,0,5.91,2.646,5.91,5.91V165.646z" id="svg_3" opacity="0.68"/>
			<path style="fill:#81B6B2;" d="M146.16,117.184h-42.552c-3.265,0-5.91,2.646-5.91,5.91v42.552c0,3.264,2.646,5.91,5.91,5.91     h42.552c3.265,0,5.91-2.646,5.91-5.91v-42.552C152.07,119.83,149.424,117.184,146.16,117.184z" id="svg_4" opacity="0.68"/>
			<path style="fill:#81B6B2;" d="M229.668,117.184h-42.552c-3.265,0-5.91,2.646-5.91,5.91v42.552c0,3.264,2.646,5.91,5.91,5.91     h42.552c3.265,0,5.91-2.646,5.91-5.91v-42.552C235.579,119.83,232.934,117.184,229.668,117.184z" id="svg_5" opacity="0.68"/>
			<path style="fill:#81B6B2;" d="M313.178,117.184h-42.552c-3.265,0-5.91,2.646-5.91,5.91v42.552c0,3.264,2.646,5.91,5.91,5.91     h42.552c3.265,0,5.91-2.646,5.91-5.91v-42.552C319.089,119.83,316.444,117.184,313.178,117.184z" id="svg_6" opacity="0.68"/>
			<path style="fill:#81B6B2;" d="M146.16,190.403h-42.552c-3.265,0-5.91,2.646-5.91,5.91v42.552c0,3.264,2.646,5.91,5.91,5.91     h42.552c3.265,0,5.91-2.646,5.91-5.91v-42.552C152.07,193.049,149.424,190.403,146.16,190.403z" id="svg_7" opacity="0.68"/>
			<path style="fill:#81B6B2;" d="M229.668,190.403h-42.552c-3.265,0-5.91,2.646-5.91,5.91v42.552c0,3.264,2.646,5.91,5.91,5.91     h42.552c3.265,0,5.91-2.646,5.91-5.91v-42.552C235.579,193.049,232.934,190.403,229.668,190.403z" id="svg_8" opacity="0.68"/>
			<path style="fill:#81B6B2;" d="M313.178,190.403h-42.552c-3.265,0-5.91,2.646-5.91,5.91v42.552c0,3.264,2.646,5.91,5.91,5.91     h42.552c3.265,0,5.91-2.646,5.91-5.91v-42.552C319.089,193.049,316.444,190.403,313.178,190.403z" id="svg_9" opacity="0.68"/>
			<path style="fill:#81B6B2;" d="M146.16,262.963h-42.552c-3.265,0-5.91,2.646-5.91,5.91v42.552c0,3.264,2.646,5.91,5.91,5.91     h42.552c3.265,0,5.91-2.646,5.91-5.91v-42.552C152.07,265.609,149.424,262.963,146.16,262.963z" id="svg_10" opacity="0.68"/>
			<path style="fill:#81B6B2;" d="M229.668,262.963h-42.552c-3.265,0-5.91,2.646-5.91,5.91v42.552c0,3.264,2.646,5.91,5.91,5.91     h42.552c3.265,0,5.91-2.646,5.91-5.91v-42.552C235.579,265.609,232.934,262.963,229.668,262.963z" id="svg_11" opacity="0.68"/>
			<path style="fill:#81B6B2;" d="M313.178,262.963h-42.552c-3.265,0-5.91,2.646-5.91,5.91v42.552c0,3.264,2.646,5.91,5.91,5.91     h42.552c3.265,0,5.91-2.646,5.91-5.91v-42.552C319.089,265.609,316.444,262.963,313.178,262.963z" id="svg_12" opacity="0.68"/>
			<path style="fill:#81B6B2;" d="M229.668,336.181h-42.552c-3.265,0-5.91,2.646-5.91,5.91v72.305v0.585h54.372v-0.585v-72.305     C235.579,338.827,232.934,336.181,229.668,336.181z" id="svg_13" opacity="0.68"/>
			<path style="fill:#E0DCD3;" d="M163.113,100.73h86.756c4.967,0,8.993-4.026,8.993-8.994V43.62V8.994     c0-4.967-4.026-8.994-8.993-8.994h-86.756c-4.967,0-8.993,4.027-8.993,8.994V43.62v48.117     C154.12,96.704,158.146,100.73,163.113,100.73z M182.607,18.664h13.327c1.702,0,3.08,1.379,3.08,3.08v20.903h15.031V21.744     c0-1.701,1.379-3.08,3.079-3.08h13.25c1.7,0,3.08,1.379,3.08,3.08v57.244c0,1.701-1.38,3.08-3.08,3.08h-13.25     c-1.7,0-3.079-1.379-3.079-3.08V59.029h-15.031v19.959c0,1.701-1.378,3.08-3.08,3.08h-13.327c-1.7,0-3.08-1.379-3.08-3.08V21.744     C179.527,20.043,180.906,18.664,182.607,18.664z" id="svg_14" opacity="0.68"/>
			<path style="fill:#E74424;" d="M179.527,78.987c0,1.701,1.38,3.08,3.08,3.08h13.327c1.702,0,3.08-1.379,3.08-3.08V59.028h15.031     v19.959c0,1.701,1.379,3.08,3.079,3.08h13.25c1.7,0,3.08-1.379,3.08-3.08V21.744c0-1.701-1.38-3.08-3.08-3.08h-13.25     c-1.7,0-3.079,1.379-3.079,3.08v20.903h-15.031V21.744c0-1.701-1.378-3.08-3.08-3.08h-13.327c-1.7,0-3.08,1.379-3.08,3.08V78.987     z" id="svg_15" opacity="0.68"/>
		</g>
	</g>
</g><g id="svg_16">
</g><g id="svg_17">
</g><g id="svg_18">
</g><g id="svg_19">
</g><g id="svg_20">
</g><g id="svg_21">
</g><g id="svg_22">
</g><g id="svg_23">
</g><g id="svg_24">
</g><g id="svg_25">
</g><g id="svg_26">
</g><g id="svg_27">
</g><g id="svg_28">
</g><g id="svg_29">
</g><g id="svg_30">
</g></g></svg>